<?xml version="1.0" encoding="utf-8"?>
<!-- Generator: Adobe Illustrator 24.0.1, SVG Export Plug-In . SVG Version: 6.00 Build 0)  -->
<svg version="1.1" id="Layer_1" xmlns="http://www.w3.org/2000/svg" xmlns:xlink="http://www.w3.org/1999/xlink" x="0px" y="0px"
	 viewBox="0 0 92 12" style="enable-background:new 0 0 92 12;" xml:space="preserve">
<style type="text/css">
	.st0{fill:#FFE5D2;}
	.st1{font-family:'Poppins-SemiBold';}
	.st2{font-size:5px;}
</style>
<g>
	<g>
		<path class="st0" d="M19.8,5.1c0,0-1.7-1.6-1.9-1.6c0,0,0.5-0.6-0.5-1.2c0,0-0.4-0.2-0.5,0.3c0,0-0.1,0.7,0.5,0.9
			c0,0,0.1,0.2,0.3,0.1c0,0,0.5,1.5,0.7,1.7c0,0,0.5,1,0.1,1.4c0,0-0.3,0.6-1.5,0.4c0,0-1.8-0.7-2-0.7c0,0,0.2-0.5-0.6-0.8
			c0,0-0.5-0.2-0.7,0.3c0,0,0,0.4,0.5,0.7c0,0,0.4,0.2,0.6,0l2.4,2.9l0.2,0.2c0,0,0.1,0.1,0.3,0c0,0,2.7-0.7,4.6-0.6
			c0,0,1.5-0.1,4.5,0.6l0.2,0.1c0,0,0.1,0.1,0.2-0.1l2.5-3c0,0,0.5,0.1,0.7-0.2c0,0,0.5-0.3,0.2-0.8c0,0-0.3-0.3-0.8,0
			c0,0-0.5,0.3-0.4,0.7c0,0-1.6,0.5-1.7,0.6c0,0-0.7,0.2-1.2,0c0,0-0.7-0.2-0.6-0.8c0,0,1-2.4,1-2.6c0,0,0.4,0.1,0.6-0.5
			c0,0,0.3-0.6,0-0.8c0,0-0.4-0.2-0.7,0.3c0,0-0.4,0.4-0.1,0.9l-2.1,1.8c0,0-0.7,0.6-1.3,0.6c0,0-0.5-0.2-0.6-1.2l-0.4-3
			c0,0,0-0.2,0.1-0.2c0,0,0.4-0.3,0.2-1.1c0,0-0.2-0.5-0.5-0.3c0,0-0.4,0.3-0.2,1c0,0,0.1,0.3,0.3,0.4L21.8,5c0,0-0.2,1.1-0.8,1
			C21.1,6,20.3,5.6,19.8,5.1z"/>
		<g>
			<path class="st0" d="M22.4,9.8c0,0-2.3,0-4.8,0.7v1.2c0,0,2-0.6,4.9-0.8c0,0,3.2,0.1,4.7,0.9v-1.2C27.2,10.6,24.1,9.7,22.4,9.8z
				 M18.5,11.1c-0.2,0-0.3-0.1-0.3-0.3c0-0.2,0.1-0.3,0.3-0.3c0.2,0,0.3,0.1,0.3,0.3C18.9,11,18.7,11.1,18.5,11.1z M19.7,10.9
				c-0.2,0-0.3-0.1-0.3-0.3c0-0.2,0.1-0.3,0.3-0.3c0.2,0,0.3,0.1,0.3,0.3C20,10.8,19.8,10.9,19.7,10.9z M20.8,10.7
				c-0.2,0-0.3-0.1-0.3-0.3c0-0.2,0.1-0.3,0.3-0.3c0.2,0,0.3,0.1,0.3,0.3C21.1,10.6,21,10.7,20.8,10.7z M21.9,10.7
				c-0.2,0-0.3-0.1-0.3-0.3c0-0.2,0.1-0.3,0.3-0.3c0.2,0,0.3,0.1,0.3,0.3C22.2,10.5,22.1,10.7,21.9,10.7z M23,10.7
				c-0.2,0-0.3-0.1-0.3-0.3c0-0.2,0.1-0.3,0.3-0.3c0.2,0,0.3,0.1,0.3,0.3C23.3,10.5,23.2,10.7,23,10.7z M24.2,10.8
				c-0.2,0-0.3-0.1-0.3-0.3c0-0.2,0.1-0.3,0.3-0.3c0.2,0,0.3,0.1,0.3,0.3C24.5,10.6,24.3,10.8,24.2,10.8z M25.3,11
				c-0.2,0-0.3-0.1-0.3-0.3c0-0.2,0.1-0.3,0.3-0.3c0.2,0,0.3,0.1,0.3,0.3C25.6,10.8,25.4,11,25.3,11z M26.4,11.2
				c-0.2,0-0.3-0.1-0.3-0.3c0-0.2,0.1-0.3,0.3-0.3c0.2,0,0.3,0.1,0.3,0.3C26.7,11.1,26.5,11.2,26.4,11.2z"/>
		</g>
	</g>
	<text transform="matrix(1 0 0 1 33.7007 5.6438)"><tspan x="0" y="0" class="st0 st1 st2">SOCIETY SERVICES</tspan><tspan x="0" y="6" class="st0 st1 st2">MANAGEMENT APP</tspan></text>
</g>
</svg>
